REM DIRINDEX 1\2,1\3,1\4
REM DIRNAME cjc105,folder01,folder02,folder03
TITLE ""
FILE "DISC2Track07.mp3" MP3
  TRACK 01 AUDIO
    TITLE "0:"
    INDEX 01 00:00:00
  TRACK 02 AUDIO
    TITLE "4:cjc105_2064"
    INDEX 01 00:00:15
  TRACK 03 AUDIO
    TITLE "0:"
    INDEX 01 00:03:70
  TRACK 04 AUDIO
    TITLE "2:cjc105_2065"
    INDEX 01 00:04:40
  TRACK 05 AUDIO
    TITLE "3:cjc105_2066"
    INDEX 01 00:05:73
  TRACK 06 AUDIO
    TITLE "0:"
    INDEX 01 00:07:33
  TRACK 07 AUDIO
    TITLE "2:cjc105_2067"
    INDEX 01 00:07:43
  TRACK 08 AUDIO
    TITLE "3:cjc105_2068"
    INDEX 01 00:09:22
  TRACK 09 AUDIO
    TITLE "0:"
    INDEX 01 00:10:53
  TRACK 10 AUDIO
    TITLE "2:cjc105_2069"
    INDEX 01 00:10:68
  TRACK 11 AUDIO
    TITLE "3:cjc105_2070"
    INDEX 01 00:12:32
  TRACK 12 AUDIO
    TITLE "0:"
    INDEX 01 00:13:71
  TRACK 13 AUDIO
    TITLE "2:cjc105_2071"
    INDEX 01 00:14:11
  TRACK 14 AUDIO
    TITLE "3:cjc105_2072"
    INDEX 01 00:15:46
  TRACK 15 AUDIO
    TITLE "0:"
    INDEX 01 00:17:18
  TRACK 16 AUDIO
    TITLE "2:cjc105_2073"
    INDEX 01 00:17:33
  TRACK 17 AUDIO
    TITLE "3:cjc105_2074"
    INDEX 01 00:18:68
  TRACK 18 AUDIO
    TITLE "0:"
    INDEX 01 00:20:02
  TRACK 19 AUDIO
    TITLE "2:cjc105_2075"
    INDEX 01 00:20:18
  TRACK 20 AUDIO
    TITLE "3:cjc105_2076"
    INDEX 01 00:21:72
  TRACK 21 AUDIO
    TITLE "0:"
    INDEX 01 00:24:24
  TRACK 22 AUDIO
    TITLE "2:cjc105_2077"
    INDEX 01 00:24:39
  TRACK 23 AUDIO
    TITLE "3:cjc105_2078"
    INDEX 01 00:26:15
  TRACK 24 AUDIO
    TITLE "0:"
    INDEX 01 00:27:36
  TRACK 25 AUDIO
    TITLE "2:cjc105_2079"
    INDEX 01 00:27:49
  TRACK 26 AUDIO
    TITLE "3:cjc105_2080"
    INDEX 01 00:29:01
  TRACK 27 AUDIO
    TITLE "0:"
    INDEX 01 00:30:44
  TRACK 28 AUDIO
    TITLE "2:cjc105_2081"
    INDEX 01 00:30:57
  TRACK 29 AUDIO
    TITLE "3:cjc105_2082"
    INDEX 01 00:32:62
  TRACK 30 AUDIO
    TITLE "0:"
    INDEX 01 00:34:24
  TRACK 31 AUDIO
    TITLE "2:cjc105_2083"
    INDEX 01 00:34:36
  TRACK 32 AUDIO
    TITLE "3:cjc105_2084"
    INDEX 01 00:36:38
  TRACK 33 AUDIO
    TITLE "0:"
    INDEX 01 00:38:12
  TRACK 34 AUDIO
    TITLE "2:cjc105_2085"
    INDEX 01 00:38:26
  TRACK 35 AUDIO
    TITLE "3:cjc105_2086"
    INDEX 01 00:39:58
  TRACK 36 AUDIO
    TITLE "0:"
    INDEX 01 00:41:26
  TRACK 37 AUDIO
    TITLE "2:cjc105_2087"
    INDEX 01 00:41:44
  TRACK 38 AUDIO
    TITLE "3:cjc105_2088"
    INDEX 01 00:43:39
  TRACK 39 AUDIO
    TITLE "0:"
    INDEX 01 00:46:00
  TRACK 40 AUDIO
    TITLE "2:cjc105_2089"
    INDEX 01 00:46:11
  TRACK 41 AUDIO
    TITLE "3:cjc105_2090"
    INDEX 01 00:47:23
  TRACK 42 AUDIO
    TITLE "0:"
    INDEX 01 00:48:30
  TRACK 43 AUDIO
    TITLE "2:cjc105_2091"
    INDEX 01 00:48:49
  TRACK 44 AUDIO
    TITLE "3:cjc105_2092"
    INDEX 01 00:49:63
  TRACK 45 AUDIO
    TITLE "0:"
    INDEX 01 00:51:26
  TRACK 46 AUDIO
    TITLE "2:cjc105_2093"
    INDEX 01 00:51:36
  TRACK 47 AUDIO
    TITLE "3:cjc105_2094"
    INDEX 01 00:53:09
  TRACK 48 AUDIO
    TITLE "0:"
    INDEX 01 00:54:36
  TRACK 49 AUDIO
    TITLE "2:cjc105_2095"
    INDEX 01 00:54:46
  TRACK 50 AUDIO
    TITLE "3:cjc105_2096"
    INDEX 01 00:55:55
  TRACK 51 AUDIO
    TITLE "0:"
    INDEX 01 00:57:46
  TRACK 52 AUDIO
    TITLE "2:cjc105_2097"
    INDEX 01 00:57:60
  TRACK 53 AUDIO
    TITLE "3:cjc105_2098"
    INDEX 01 00:59:51
  TRACK 54 AUDIO
    TITLE "0:"
    INDEX 01 01:00:74
  TRACK 55 AUDIO
    TITLE "2:cjc105_2099"
    INDEX 01 01:01:15
  TRACK 56 AUDIO
    TITLE "3:cjc105_2100"
    INDEX 01 01:02:38
  TRACK 57 AUDIO
    TITLE "0:"
    INDEX 01 01:04:07
  TRACK 58 AUDIO
    TITLE "2:cjc105_2101"
    INDEX 01 01:04:19
  TRACK 59 AUDIO
    TITLE "3:cjc105_2102"
    INDEX 01 01:06:08
  TRACK 60 AUDIO
    TITLE "0:"
    INDEX 01 01:07:25
  TRACK 61 AUDIO
    TITLE "2:cjc105_2103"
    INDEX 01 01:07:49
  TRACK 62 AUDIO
    TITLE "3:cjc105_2104"
    INDEX 01 01:09:30
  TRACK 63 AUDIO
    TITLE "0:"
    INDEX 01 01:11:13
  TRACK 64 AUDIO
    TITLE "2:cjc105_2105"
    INDEX 01 01:11:21
  TRACK 65 AUDIO
    TITLE "3:cjc105_2106"
    INDEX 01 01:12:40
  TRACK 66 AUDIO
    TITLE "0:"
    INDEX 01 01:14:21
  TRACK 67 AUDIO
    TITLE "2:cjc105_2107"
    INDEX 01 01:14:35
  TRACK 68 AUDIO
    TITLE "3:cjc105_2108"
    INDEX 01 01:15:58
  TRACK 69 AUDIO
    TITLE "0:"
    INDEX 01 01:17:20
  TRACK 70 AUDIO
    TITLE "2:cjc105_2109"
    INDEX 01 01:17:33
  TRACK 71 AUDIO
    TITLE "3:cjc105_2110"
    INDEX 01 01:19:09
  TRACK 72 AUDIO
    TITLE "0:"
    INDEX 01 01:20:48
  TRACK 73 AUDIO
    TITLE "2:cjc105_2111"
    INDEX 01 01:20:59
  TRACK 74 AUDIO
    TITLE "3:cjc105_2112"
    INDEX 01 01:22:21
  TRACK 75 AUDIO
    TITLE "0:"
    INDEX 01 01:23:54
  TRACK 76 AUDIO
    TITLE "2:cjc105_2113"
    INDEX 01 01:23:69
  TRACK 77 AUDIO
    TITLE "3:cjc105_2114"
    INDEX 01 01:25:53
  TRACK 78 AUDIO
    TITLE "0:"
    INDEX 01 01:27:24
  TRACK 79 AUDIO
    TITLE "2:cjc105_2115"
    INDEX 01 01:27:38
  TRACK 80 AUDIO
    TITLE "3:cjc105_2116"
    INDEX 01 01:29:07
  TRACK 81 AUDIO
    TITLE "0:"
    INDEX 01 01:30:42
  TRACK 82 AUDIO
    TITLE "2:cjc105_2117"
    INDEX 01 01:30:58
  TRACK 83 AUDIO
    TITLE "3:cjc105_2118"
    INDEX 01 01:32:13
  TRACK 84 AUDIO
    TITLE "0:"
    INDEX 01 01:33:54
  TRACK 85 AUDIO
    TITLE "2:cjc105_2119"
    INDEX 01 01:33:68
  TRACK 86 AUDIO
    TITLE "3:cjc105_2120"
    INDEX 01 01:35:31
  TRACK 87 AUDIO
    TITLE "0:"
    INDEX 01 01:37:28
  TRACK 88 AUDIO
    TITLE "2:cjc105_2121"
    INDEX 01 01:37:42
  TRACK 89 AUDIO
    TITLE "3:cjc105_2122"
    INDEX 01 01:38:49
  TRACK 90 AUDIO
    TITLE "0:"
    INDEX 01 01:40:29
  TRACK 91 AUDIO
    TITLE "2:cjc105_2123"
    INDEX 01 01:40:44
  TRACK 92 AUDIO
    TITLE "3:cjc105_2124"
    INDEX 01 01:41:34
  TRACK 93 AUDIO
    TITLE "0:"
    INDEX 01 01:42:59
  TRACK 94 AUDIO
    TITLE "2:cjc105_2125"
    INDEX 01 01:42:73
  TRACK 95 AUDIO
    TITLE "3:cjc105_2126"
    INDEX 01 01:44:11
  TRACK 96 AUDIO
    TITLE "0:"
    INDEX 01 01:46:35
  TRACK 97 AUDIO
    TITLE "2:cjc105_2127"
    INDEX 01 01:46:53
  TRACK 98 AUDIO
    TITLE "3:cjc105_2128"
    INDEX 01 01:48:18
  TRACK 99 AUDIO
    TITLE "0:"
    INDEX 01 01:49:33
  TRACK 100 AUDIO
    TITLE "2:cjc105_2129"
    INDEX 01 01:49:45
  TRACK 101 AUDIO
    TITLE "3:cjc105_2130"
    INDEX 01 01:51:15
  TRACK 102 AUDIO
    TITLE "0:"
    INDEX 01 01:54:15
  TRACK 103 AUDIO
    TITLE "2:cjc105_2131"
    INDEX 01 01:54:29
  TRACK 104 AUDIO
    TITLE "3:cjc105_2132"
    INDEX 01 01:55:62
  TRACK 105 AUDIO
    TITLE "0:"
    INDEX 01 01:57:09
  TRACK 106 AUDIO
    TITLE "2:cjc105_2133"
    INDEX 01 01:57:21
  TRACK 107 AUDIO
    TITLE "3:cjc105_2134"
    INDEX 01 01:58:48
  TRACK 108 AUDIO
    TITLE "0:"
    INDEX 01 01:59:71
  TRACK 109 AUDIO
    TITLE "2:cjc105_2135"
    INDEX 01 02:00:08
  TRACK 110 AUDIO
    TITLE "3:cjc105_2136"
    INDEX 01 02:01:23
  TRACK 111 AUDIO
    TITLE "0:"
    INDEX 01 02:02:48
  TRACK 112 AUDIO
    TITLE "2:cjc105_2137"
    INDEX 01 02:02:64
  TRACK 113 AUDIO
    TITLE "3:cjc105_2138"
    INDEX 01 02:04:62
  TRACK 114 AUDIO
    TITLE "0:"
    INDEX 01 02:07:00
  TRACK 115 AUDIO
    TITLE "2:cjc105_2139"
    INDEX 01 02:07:16
  TRACK 116 AUDIO
    TITLE "3:cjc105_2140"
    INDEX 01 02:08:37
  TRACK 117 AUDIO
    TITLE "0:"
    INDEX 01 02:09:48
  TRACK 118 AUDIO
    TITLE "2:cjc105_2141"
    INDEX 01 02:09:64
  TRACK 119 AUDIO
    TITLE "3:cjc105_2142"
    INDEX 01 02:11:31
  TRACK 120 AUDIO
    TITLE "0:"
    INDEX 01 02:12:68
  TRACK 121 AUDIO
    TITLE "2:cjc105_2143"
    INDEX 01 02:13:12
  TRACK 122 AUDIO
    TITLE "3:cjc105_2144"
    INDEX 01 02:14:65
  TRACK 123 AUDIO
    TITLE "0:"
    INDEX 01 02:16:23
  TRACK 124 AUDIO
    TITLE "2:cjc105_2145"
    INDEX 01 02:16:36
  TRACK 125 AUDIO
    TITLE "3:cjc105_2146"
    INDEX 01 02:18:19
  TRACK 126 AUDIO
    TITLE "0:"
    INDEX 01 02:19:46
  TRACK 127 AUDIO
    TITLE "2:cjc105_2147"
    INDEX 01 02:19:70
  TRACK 128 AUDIO
    TITLE "3:cjc105_2148"
    INDEX 01 02:21:28
  TRACK 129 AUDIO
    TITLE "0:"
    INDEX 01 02:22:39
  TRACK 130 AUDIO
    TITLE "2:cjc105_2149"
    INDEX 01 02:22:54
  TRACK 131 AUDIO
    TITLE "3:cjc105_2150"
    INDEX 01 02:23:74
  TRACK 132 AUDIO
    TITLE "0:"
    INDEX 01 02:25:20
  TRACK 133 AUDIO
    TITLE "2:cjc105_2151"
    INDEX 01 02:25:31
  TRACK 134 AUDIO
    TITLE "3:cjc105_2152"
    INDEX 01 02:26:41
  TRACK 135 AUDIO
    TITLE "0:"
    INDEX 01 02:27:54
  TRACK 136 AUDIO
    TITLE "2:cjc105_2153"
    INDEX 01 02:27:69
  TRACK 137 AUDIO
    TITLE "3:cjc105_2154"
    INDEX 01 02:28:61
  TRACK 138 AUDIO
    TITLE "0:"
    INDEX 01 02:30:34
  TRACK 139 AUDIO
    TITLE "2:cjc105_2155"
    INDEX 01 02:30:46
  TRACK 140 AUDIO
    TITLE "3:cjc105_2156"
    INDEX 01 02:31:51
  TRACK 141 AUDIO
    TITLE "0:"
    INDEX 01 02:32:63
  TRACK 142 AUDIO
    TITLE "2:cjc105_2157"
    INDEX 01 02:32:74
  TRACK 143 AUDIO
    TITLE "3:cjc105_2158"
    INDEX 01 02:34:11
  TRACK 144 AUDIO
    TITLE "0:"
    INDEX 01 02:35:51
  TRACK 145 AUDIO
    TITLE "2:cjc105_2159"
    INDEX 01 02:35:69
  TRACK 146 AUDIO
    TITLE "3:cjc105_2160"
    INDEX 01 02:37:34
  TRACK 147 AUDIO
    TITLE "0:"
    INDEX 01 02:38:69
  TRACK 148 AUDIO
    TITLE "2:cjc105_2161"
    INDEX 01 02:39:08
  TRACK 149 AUDIO
    TITLE "3:cjc105_2162"
    INDEX 01 02:40:47
  TRACK 150 AUDIO
    TITLE "0:"
    INDEX 01 02:42:36
